<svg width="862" height="290" viewBox="0 0 862 290" fill="none" xmlns="http://www.w3.org/2000/svg">
<path d="M137.6 268.5L56.05 74.95C50.45 61.8833 45.0833 52.7833 39.95 47.65C34.8167 42.2833 28.1667 39.1333 20 38.2V31.2C20.9333 31.2 23.0333 31.0833 26.3 30.85C29.3333 30.6167 31.6667 30.5 33.3 30.5C40.5333 30.5 48.1167 31.4333 56.05 33.3C64.2167 35.1667 72.0333 39.25 79.5 45.55C87.2 51.85 93.85 61.65 99.45 74.95L156.5 210.05L231.75 34H248.9L148.45 268.5H137.6Z" fill="white"/>
<path d="M302.002 90.35C327.668 90.35 346.218 95.0167 357.652 104.35C369.318 113.683 375.152 127.567 375.152 146C375.385 161.167 372.235 173.067 365.702 181.7C359.168 190.1 348.785 194.3 334.552 194.3H235.152V171.2H326.852C334.552 171.2 339.568 168.633 341.902 163.5C344.235 158.133 345.402 152.3 345.402 146C345.168 135.033 341.902 127.217 335.602 122.55C329.302 117.883 318.568 115.55 303.402 115.55C291.035 115.55 281.235 117.417 274.002 121.15C267.002 124.65 261.985 130.95 258.952 140.05C256.152 148.917 254.752 161.4 254.752 177.5C254.752 195.7 256.502 209.583 260.002 219.15C263.735 228.717 269.568 235.25 277.502 238.75C285.435 242.25 295.935 244 309.002 244C318.102 244 328.018 243.65 338.752 242.95C349.718 242.017 359.518 240.967 368.152 239.8L371.302 259.75C365.935 261.85 359.285 263.6 351.352 265C343.652 266.4 335.602 267.45 327.202 268.15C319.035 268.85 311.685 269.2 305.152 269.2C285.552 269.2 269.802 266.283 257.902 260.45C246.002 254.383 237.252 244.817 231.652 231.75C226.285 218.45 223.602 200.95 223.602 179.25C223.602 156.85 226.285 139.233 231.652 126.4C237.252 113.333 245.768 104.117 257.202 98.75C268.868 93.15 283.802 90.35 302.002 90.35Z" fill="white"/>
<path d="M455.69 90.35C466.89 90.35 477.973 91.8667 488.94 94.9C499.907 97.7 510.407 102.133 520.44 108.2L518.69 126.75C507.723 123.483 498.04 120.917 489.64 119.05C481.24 117.183 472.257 116.25 462.69 116.25C452.89 116.25 444.957 118 438.89 121.5C433.057 124.767 428.74 130.95 425.94 140.05C423.14 149.15 421.74 162.1 421.74 178.9C421.74 195.7 423.023 208.767 425.59 218.1C428.39 227.433 432.707 233.967 438.54 237.7C444.373 241.433 451.84 243.3 460.94 243.3C467.707 243.3 473.773 242.483 479.14 240.85C484.74 238.983 490.573 236.067 496.64 232.1C502.94 228.133 510.29 223.117 518.69 217.05L521.49 238.05C512.157 246.683 501.54 254.033 489.64 260.1C477.74 266.167 464.907 269.2 451.14 269.2C429.673 269.2 414.273 261.617 404.94 246.45C395.84 231.283 391.29 208.883 391.29 179.25C391.29 157.083 393.623 139.583 398.29 126.75C402.957 113.683 410.073 104.35 419.64 98.75C429.207 93.15 441.223 90.35 455.69 90.35ZM544.59 20V265H521.49L517.99 235.25L514.84 232.8V115.9L516.94 110.65C516.007 104.117 515.423 97.8167 515.19 91.75C514.957 85.6833 514.84 79.2667 514.84 72.5V20H544.59Z" fill="white"/>
<path d="M591.225 94.55L595.075 127.1L597.875 132.35V265H568.125V94.55H591.225ZM674.875 90.35L671.375 118.35H661.575C651.541 118.35 641.508 120.45 631.475 124.65C621.441 128.617 609.191 134.333 594.725 141.8L592.275 123.25C604.875 112.983 617.475 104.933 630.075 99.1C642.908 93.2667 655.275 90.35 667.175 90.35H674.875Z" fill="white"/>
<path d="M762.26 90.35C781.86 90.35 797.493 93.2667 809.16 99.1C821.06 104.933 829.576 114.5 834.71 127.8C839.843 140.867 842.41 158.25 842.41 179.95C842.41 201.65 839.843 219.15 834.71 232.45C829.576 245.517 821.06 254.967 809.16 260.8C797.493 266.633 781.86 269.55 762.26 269.55C742.893 269.55 727.26 266.633 715.36 260.8C703.693 254.967 695.176 245.517 689.81 232.45C684.676 219.15 682.11 201.65 682.11 179.95C682.11 158.25 684.676 140.867 689.81 127.8C695.176 114.5 703.693 104.933 715.36 99.1C727.26 93.2667 742.893 90.35 762.26 90.35ZM762.26 115.55C749.893 115.55 740.093 117.533 732.86 121.5C725.86 125.233 720.843 131.767 717.81 141.1C714.776 150.433 713.26 163.383 713.26 179.95C713.26 196.517 714.776 209.467 717.81 218.8C720.843 228.133 725.86 234.783 732.86 238.75C740.093 242.483 749.893 244.35 762.26 244.35C774.626 244.35 784.426 242.483 791.66 238.75C798.893 234.783 804.026 228.133 807.06 218.8C810.093 209.467 811.61 196.517 811.61 179.95C811.61 163.383 810.093 150.433 807.06 141.1C804.026 131.767 798.893 125.233 791.66 121.5C784.426 117.533 774.626 115.55 762.26 115.55Z" fill="white"/>
</svg>
